<svg width="40" height="41" viewBox="0 0 40 41" fill="none" xmlns="http://www.w3.org/2000/svg">
<g clip-path="url(#clip0_1203_965)">
<path d="M13.3332 40.4998C17.0132 40.4998 19.9998 37.5132 19.9998 33.8332V27.1665H13.3332C9.65317 27.1665 6.6665 30.1532 6.6665 33.8332C6.6665 37.5132 9.65317 40.4998 13.3332 40.4998Z" fill="#A3A3A3"/>
<path d="M6.6665 20.5002C6.6665 16.8202 9.65317 13.8335 13.3332 13.8335H19.9998V27.1668H13.3332C9.65317 27.1668 6.6665 24.1802 6.6665 20.5002Z" fill="#A3A3A3"/>
<path d="M6.6665 7.16667C6.6665 3.48667 9.65317 0.5 13.3332 0.5H19.9998V13.8333H13.3332C9.65317 13.8333 6.6665 10.8467 6.6665 7.16667Z" fill="#A3A3A3"/>
<path d="M19.9998 0.5H26.6664C30.3464 0.5 33.3331 3.48667 33.3331 7.16667C33.3331 10.8467 30.3464 13.8333 26.6664 13.8333H19.9998V0.5Z" fill="#A3A3A3"/>
<path d="M33.3331 20.5002C33.3331 24.1802 30.3464 27.1668 26.6664 27.1668C22.9864 27.1668 19.9998 24.1802 19.9998 20.5002C19.9998 16.8202 22.9864 13.8335 26.6664 13.8335C30.3464 13.8335 33.3331 16.8202 33.3331 20.5002Z" fill="#A3A3A3"/>
</g>
<defs>
<clipPath id="clip0_1203_965">
<rect width="40" height="40" fill="white" transform="translate(0 0.5)"/>
</clipPath>
</defs>
</svg>
