<svg width="83" height="32" viewBox="0 0 83 32" fill="none" xmlns="http://www.w3.org/2000/svg">
<path d="M22.9866 14.1586C22.5585 14.5893 22.2306 15.1091 22.0264 15.681C21.8222 16.2529 21.7466 16.8628 21.805 17.4672L21.7847 17.4469C21.8448 18.1585 21.7487 18.8744 21.5035 19.5451C21.2582 20.2156 20.8697 20.8246 20.3648 21.3296C19.8599 21.8344 19.2509 22.2231 18.5802 22.4682C17.9097 22.7135 17.1936 22.8095 16.4822 22.7494L16.5025 22.7697C15.6514 22.6905 14.7967 22.8757 14.0546 23.3001C13.3127 23.7245 12.7196 24.3674 12.3564 25.1412C11.9933 25.915 11.8775 26.7818 12.025 27.6239C12.1726 28.4658 12.5763 29.2417 13.1809 29.8458C13.7856 30.45 14.5619 30.8529 15.4039 30.9996C16.2461 31.1465 17.1128 31.0299 17.8863 30.6661C18.6598 30.3021 19.3021 29.7086 19.7258 28.9662C20.1495 28.2238 20.334 27.3689 20.254 26.5178L20.2755 26.5382C20.2154 25.8267 20.3113 25.1107 20.5565 24.44C20.8018 23.7695 21.1905 23.1605 21.6953 22.6555C22.2002 22.1507 22.8092 21.762 23.4798 21.5169C24.1504 21.2716 24.8664 21.1756 25.578 21.2357L25.5565 21.2154C26.2517 21.2778 26.9515 21.1638 27.591 20.8839C28.2303 20.604 28.7888 20.1672 29.2145 19.614C29.6401 19.0608 29.9193 18.409 30.026 17.7193C30.1327 17.0294 30.0636 16.3238 29.825 15.6677C29.5864 15.0118 29.1861 14.4266 28.6612 13.9665C28.1362 13.5064 27.5036 13.1863 26.822 13.0358C26.1404 12.8854 25.4318 12.9093 24.7619 13.1055C24.092 13.3018 23.4826 13.664 22.99 14.1586H22.9866Z" fill="#262626"/>
<path d="M14.6532 20.1062L14.6317 20.0859C15.2364 20.1467 15.8471 20.0725 16.4197 19.8685C16.9922 19.6645 17.5122 19.3359 17.9422 18.9063C18.372 18.4767 18.7012 17.9568 18.9055 17.3845C19.11 16.8121 19.1847 16.2015 19.1242 15.5967L19.1457 15.617C19.0856 14.9055 19.1816 14.1895 19.4267 13.5189C19.672 12.8483 20.0607 12.2393 20.5655 11.7344C21.0705 11.2296 21.6794 10.8409 22.35 10.5957C23.0207 10.3504 23.7366 10.2545 24.4482 10.3146L24.4267 10.2942C25.2779 10.3742 26.1329 10.1896 26.8753 9.76567C27.6178 9.34177 28.2113 8.69915 28.575 7.9255C28.9388 7.15187 29.055 6.28484 28.9079 5.44269C28.7609 4.60054 28.3576 3.82428 27.753 3.21977C27.1486 2.61527 26.3723 2.21195 25.5301 2.06485C24.688 1.91774 23.821 2.03399 23.0473 2.39775C22.2736 2.7615 21.6311 3.35507 21.2072 4.09747C20.7832 4.83986 20.5986 5.69496 20.6786 6.54611L20.6583 6.52465C20.7185 7.23619 20.6227 7.95231 20.3776 8.62299C20.1324 9.29368 19.7437 9.90276 19.2389 10.4078C18.7339 10.9126 18.1248 11.3013 17.4542 11.5464C16.7834 11.7915 16.0673 11.8873 15.3558 11.8271L15.3761 11.8486C14.7714 11.7877 14.1606 11.8619 13.5881 12.0659C13.0156 12.2698 12.4956 12.5986 12.0656 13.0282C11.6357 13.4578 11.3066 13.9776 11.1022 14.55C10.8978 15.1224 10.8231 15.7329 10.8836 16.3377L10.8632 16.3174C10.9231 17.0289 10.827 17.7448 10.5817 18.4154C10.3364 19.0858 9.94779 19.6948 9.44296 20.1996C8.93808 20.7044 8.32917 21.093 7.65867 21.3384C6.98816 21.5836 6.27221 21.6798 5.56076 21.6199L5.5811 21.6402C4.72994 21.5602 3.87485 21.7448 3.13244 22.1688C2.39005 22.5927 1.79649 23.2353 1.43273 24.0089C1.06897 24.7826 0.952709 25.6496 1.09982 26.4918C1.24693 27.3339 1.65026 28.1102 2.25475 28.7146C2.85926 29.3192 3.63552 29.7225 4.47767 29.8696C5.31982 30.0167 6.18685 29.9004 6.9605 29.5367C7.73414 29.1729 8.37675 28.5794 8.80065 27.837C9.2246 27.0945 9.40919 26.2395 9.32921 25.3883L9.35067 25.4087C9.29057 24.6971 9.38659 23.9812 9.63183 23.3105C9.87696 22.6399 10.2657 22.031 10.7705 21.526C11.2754 21.0212 11.8844 20.6325 12.555 20.3874C13.2256 20.1421 13.9416 20.0461 14.6532 20.1062Z" fill="#262626"/>
<path d="M7.08266 17.839C7.51082 17.4083 7.83861 16.8885 8.04267 16.3166C8.24673 15.7446 8.322 15.1346 8.26313 14.5303L8.28458 14.5506C8.22448 13.8389 8.32046 13.1226 8.56582 12.4519C8.81119 11.7811 9.20004 11.172 9.70521 10.667C10.2104 10.1621 10.8196 9.77355 11.4905 9.52847C12.1614 9.28339 12.8777 9.18771 13.5893 9.24812L13.5679 9.22779C14.4187 9.3075 15.2735 9.12282 16.0156 8.69894C16.7576 8.27507 17.3508 7.63262 17.7144 6.85921C18.0779 6.0858 18.194 5.21909 18.047 4.37726C17.8999 3.53543 17.4966 2.75946 16.8924 2.15518C16.2881 1.55089 15.5121 1.1477 14.6703 1.0006C13.8285 0.853493 12.9617 0.969641 12.1884 1.33318C11.4149 1.69672 10.7725 2.28996 10.3486 3.03202C9.9247 3.77407 9.74 4.62882 9.81976 5.47968L9.79942 5.45934C9.85952 6.17084 9.7635 6.88688 9.51826 7.55747C9.27302 8.22807 8.88445 8.83706 8.37955 9.34196C7.87466 9.84686 7.26565 10.2355 6.59506 10.4807C5.92447 10.7259 5.20844 10.8219 4.49694 10.7618L4.51727 10.7822C3.82207 10.7198 3.12236 10.834 2.48302 11.114C1.84367 11.3941 1.28535 11.831 0.859805 12.3843C0.434262 12.9375 0.155266 13.5893 0.0486519 14.279C-0.0579512 14.9689 0.0112838 15.6745 0.249941 16.3303C0.488598 16.9863 0.888972 17.5713 1.41395 18.0313C1.93892 18.4914 2.57151 18.8115 3.25311 18.9619C3.93469 19.1123 4.64323 19.0882 5.31307 18.892C5.98289 18.6957 6.59233 18.3335 7.08491 17.839H7.08266Z" fill="#262626"/>
<path d="M43.2687 12.1667V14.7481H35.8445V12.1667H43.2687ZM37.5323 9.23235H40.9411V20.7052C40.9411 21.117 41.033 21.4222 41.2169 21.6208C41.4007 21.812 41.6949 21.9076 42.0994 21.9076C42.2318 21.9076 42.3788 21.8966 42.5406 21.8745C42.7024 21.8524 42.8422 21.8267 42.9598 21.7973L43.5004 24.3566C43.1253 24.4669 42.7613 24.5478 42.4083 24.5993C42.0626 24.6508 41.7206 24.6765 41.3823 24.6765C40.1541 24.6765 39.2054 24.3713 38.5362 23.7609C37.8669 23.1431 37.5323 22.2753 37.5323 21.1574V9.23235ZM44.758 24.5V12.1667H48.1667V24.5H44.758ZM46.4568 10.5892C45.9494 10.5892 45.5155 10.4201 45.1551 10.0818C44.7947 9.74348 44.6146 9.33531 44.6146 8.85728C44.6146 8.37924 44.7947 7.97475 45.1551 7.64381C45.5155 7.30551 45.9494 7.13636 46.4568 7.13636C46.9716 7.13636 47.4092 7.30551 47.7696 7.64381C48.1299 7.97475 48.3101 8.37924 48.3101 8.85728C48.3101 9.33531 48.1299 9.74348 47.7696 10.0818C47.4092 10.4201 46.9716 10.5892 46.4568 10.5892ZM53.6935 24.7317C52.914 24.7317 52.2116 24.5956 51.5865 24.3235C50.9687 24.044 50.4833 23.6322 50.1303 23.088C49.7773 22.5437 49.6008 21.8671 49.6008 21.0582C49.6008 20.3668 49.7258 19.7932 49.9759 19.3372C50.2259 18.8739 50.5679 18.4988 51.0018 18.212C51.4357 17.9252 51.9285 17.7082 52.4801 17.5612C53.0316 17.4141 53.6163 17.3111 54.2341 17.2523C54.9474 17.1861 55.5211 17.1199 55.955 17.0537C56.3889 16.9875 56.7051 16.8882 56.9037 16.7559C57.1096 16.6161 57.2126 16.4176 57.2126 16.1602V16.105C57.2126 15.5975 57.0508 15.2041 56.7272 14.9246C56.411 14.6452 55.9623 14.5054 55.3813 14.5054C54.7709 14.5054 54.2819 14.6415 53.9142 14.9136C53.5538 15.1783 53.3148 15.5166 53.1971 15.9285L50.0311 15.6748C50.1928 14.9246 50.5091 14.2774 50.9798 13.7332C51.4504 13.1816 52.0572 12.7588 52.8 12.4646C53.5501 12.1631 54.4179 12.0123 55.4034 12.0123C56.0874 12.0123 56.7419 12.0932 57.367 12.255C57.9921 12.4168 58.5474 12.6668 59.0328 13.0051C59.5255 13.3361 59.9153 13.7663 60.2021 14.2958C60.4889 14.8253 60.6324 15.4541 60.6324 16.1822V24.5H57.3781V22.7791H57.2898C57.0912 23.1689 56.8265 23.5108 56.4955 23.805C56.1646 24.0918 55.7675 24.3198 55.3041 24.489C54.8408 24.6508 54.3039 24.7317 53.6935 24.7317ZM54.6753 22.3709C55.1754 22.3709 55.6167 22.2716 55.9991 22.0731C56.3889 21.8671 56.6904 21.595 56.9037 21.2567C57.1243 20.9111 57.2346 20.525 57.2346 20.0984V18.7857C57.1317 18.8519 56.9846 18.9144 56.7934 18.9732C56.6095 19.032 56.4036 19.0835 56.1756 19.1276C55.9476 19.1718 55.7196 19.2122 55.4917 19.249C55.2637 19.2784 55.0578 19.3078 54.8739 19.3372C54.4694 19.3961 54.1164 19.4917 53.8149 19.6241C53.5133 19.7491 53.278 19.9219 53.1088 20.1425C52.9471 20.3558 52.8662 20.6243 52.8662 20.9478C52.8662 21.4112 53.0353 21.7642 53.3736 22.0069C53.7119 22.2496 54.1458 22.3709 54.6753 22.3709ZM66.0378 17.3736V24.5H62.6291V12.1667H65.9827V14.362H66.104C66.3835 13.6339 66.8284 13.0603 67.4388 12.6411C68.0492 12.2219 68.8141 12.0123 69.7334 12.0123C70.5865 12.0123 71.3293 12.1998 71.9618 12.5749C72.6016 12.95 73.098 13.4832 73.451 14.1745C73.804 14.8658 73.9805 15.6932 73.9805 16.6566V24.5H70.5718V17.2633C70.5718 16.5132 70.3769 15.9248 69.9871 15.4983C69.5973 15.0644 69.0605 14.8474 68.3765 14.8474C67.9205 14.8474 67.516 14.9504 67.163 15.1563C66.81 15.3549 66.5342 15.6417 66.3357 16.0167C66.1371 16.3918 66.0378 16.8441 66.0378 17.3736Z" fill="#262626"/>
</svg>
