<svg width="28" height="28" viewBox="0 0 28 28" fill="none" xmlns="http://www.w3.org/2000/svg">
<path d="M20.4517 9.06501C20.37 9.05334 20.2884 9.05334 20.2067 9.06501C18.3984 9.00668 16.9634 7.52501 16.9634 5.70501C16.9634 3.85001 18.4684 2.33334 20.335 2.33334C22.19 2.33334 23.7067 3.83834 23.7067 5.70501C23.695 7.52501 22.26 9.00668 20.4517 9.06501Z" fill="#8B5CF6"/>
<path d="M24.255 17.15C22.9484 18.025 21.1167 18.3517 19.425 18.13C19.8684 17.1733 20.1017 16.1117 20.1134 14.9917C20.1134 13.825 19.8567 12.7167 19.3667 11.7483C21.0934 11.515 22.925 11.8417 24.2434 12.7167C26.0867 13.93 26.0867 15.925 24.255 17.15Z" fill="#8B5CF6"/>
<path d="M7.51335 9.06501C7.59502 9.05334 7.67669 9.05334 7.75835 9.06501C9.56669 9.00668 11.0017 7.52501 11.0017 5.70501C11.0017 3.83834 9.49669 2.33334 7.63002 2.33334C5.77502 2.33334 4.27002 3.83834 4.27002 5.70501C4.27002 7.52501 5.70502 9.00668 7.51335 9.06501Z" fill="#8B5CF6"/>
<path d="M7.64168 14.9917C7.64168 16.1234 7.88668 17.1967 8.33002 18.165C6.68501 18.34 4.97002 17.99 3.71001 17.1617C1.86668 15.9367 1.86668 13.9417 3.71001 12.7167C4.95835 11.8767 6.72002 11.5384 8.37668 11.725C7.89835 12.705 7.64168 13.8134 7.64168 14.9917Z" fill="#8B5CF6"/>
<path d="M14.1401 18.515C14.0468 18.5033 13.9418 18.5033 13.8368 18.515C11.6901 18.445 9.9751 16.6833 9.9751 14.5133C9.98676 12.2967 11.7718 10.5 14.0001 10.5C16.2168 10.5 18.0134 12.2967 18.0134 14.5133C18.0018 16.6833 16.2984 18.445 14.1401 18.515Z" fill="#8B5CF6"/>
<path d="M10.3483 20.93C8.58668 22.1084 8.58668 24.045 10.3483 25.2117C12.355 26.5534 15.645 26.5534 17.6517 25.2117C19.4134 24.0334 19.4134 22.0967 17.6517 20.93C15.6567 19.5884 12.3667 19.5884 10.3483 20.93Z" fill="#8B5CF6"/>
</svg>
