<svg width="14" height="15" viewBox="0 0 14 15" fill="none" xmlns="http://www.w3.org/2000/svg">
<path d="M8.00924 2.54754L9.0359 4.60087C9.1759 4.88671 9.54924 5.16087 9.86424 5.21337L11.7251 5.52254C12.9151 5.72087 13.1951 6.58421 12.3376 7.43587L10.8909 8.88254C10.6459 9.12754 10.5117 9.60004 10.5876 9.93837L11.0017 11.7292C11.3284 13.1467 10.5759 13.695 9.32174 12.9542L7.57757 11.9217C7.26257 11.735 6.7434 11.735 6.42257 11.9217L4.6784 12.9542C3.43007 13.695 2.67174 13.1409 2.9984 11.7292L3.41257 9.93837C3.4884 9.60004 3.35424 9.12754 3.10924 8.88254L1.66257 7.43587C0.810902 6.58421 1.08507 5.72087 2.27507 5.52254L4.1359 5.21337C4.44507 5.16087 4.8184 4.88671 4.9584 4.60087L5.98507 2.54754C6.54507 1.43337 7.45507 1.43337 8.00924 2.54754Z" fill="#FBBF24"/>
</svg>
