<svg width="40" height="41" viewBox="0 0 40 41" fill="none" xmlns="http://www.w3.org/2000/svg">
<path d="M19.9905 3.8335C16.6942 3.8335 13.4718 4.81098 10.731 6.64234C7.9902 8.47369 5.854 11.0767 4.59253 14.1221C3.33107 17.1675 3.00102 20.5187 3.64411 23.7517C4.28719 26.9847 5.87454 29.9544 8.20541 32.2853C10.5363 34.6162 13.506 36.2035 16.739 36.8466C19.972 37.4897 23.3231 37.1596 26.3686 35.8982C29.414 34.6367 32.017 32.5005 33.8484 29.7597C35.6797 27.0188 36.6572 23.7965 36.6572 20.5002C36.6574 18.3114 36.2264 16.1441 35.3889 14.1219C34.5514 12.0997 33.3237 10.2623 31.776 8.71464C30.2284 7.16697 28.391 5.93931 26.3688 5.1018C24.3466 4.26429 22.1793 3.83331 19.9905 3.8335ZM25.2897 29.0876C25.2273 29.2432 25.1324 29.3836 25.0113 29.4994C24.8902 29.6153 24.7458 29.704 24.5876 29.7594C24.4295 29.8149 24.2613 29.8359 24.0944 29.8211C23.9274 29.8063 23.7656 29.7559 23.6197 29.6734L19.0953 26.1578L16.1914 28.8368C16.124 28.8866 16.0452 28.9187 15.9622 28.93C15.8792 28.9413 15.7947 28.9316 15.7164 28.9017L16.2731 23.921L16.2909 23.9351L16.3023 23.8368C16.3023 23.8368 24.4439 16.4242 24.7756 16.1084C25.1114 15.7934 25.0006 15.7251 25.0006 15.7251C25.0197 15.3409 24.3981 15.7251 24.3981 15.7251L13.6105 22.6652L9.11804 21.1352C9.11804 21.1352 8.42804 20.8877 8.36304 20.3435C8.29471 19.8035 9.14053 19.5102 9.14053 19.5102L27.0022 12.4143C27.0022 12.4143 28.4705 11.7601 28.4705 12.8435L25.2897 29.0876Z" fill="#A3A3A3"/>
</svg>
